<svg width="36" height="22" viewBox="0 0 36 22" fill="none" xmlns="http://www.w3.org/2000/svg">
<g clip-path="url(#clip0_4689_1777)">
<g clip-path="url(#clip1_4689_1777)">
<g clip-path="url(#clip2_4689_1777)">
<path opacity="0.2" d="M3 5.1102C3 4.3344 3.59159 3.68661 4.36419 3.61636L34.3643 0.889095C35.2426 0.809238 36 1.50089 36 2.38293V14.2286C36 14.9752 35.451 15.6081 34.712 15.7136L3 20.2404V5.1102Z" fill="#111315"/>
<path d="M0 18.7402V17.2402L3 17.9902V21.7402L0.75 19.4902L0 18.7402Z" fill="#C7443B"/>
<path d="M0 5.12022C0 4.34008 0.597993 3.69019 1.37543 3.62541L34.3755 0.875402C35.25 0.802525 36 1.49266 36 2.37022V14.3598C36 15.14 35.402 15.7898 34.6245 15.8546L0 18.74V5.12022Z" fill="url(#paint0_linear_4689_1777)"/>
<path d="M7.5691 11.3781L13.5614 10.7607L13.6653 9.19376L7.67304 9.81122L7.5691 11.3781ZM12.7808 6.11219L12.2213 14.6143L13.8925 14.4421L14.4758 5.93753L12.7808 6.11219ZM7.33761 6.67309L6.77814 15.1752L8.44929 15.003L9.0207 6.49966L7.33761 6.67309ZM17.2243 9.87656C17.2494 9.49598 17.3323 9.12956 17.4729 8.77729C17.6215 8.4242 17.814 8.1068 18.0504 7.82509C18.2947 7.54255 18.5806 7.31204 18.9079 7.13353C19.2354 6.95503 19.594 6.84569 19.984 6.80551C20.374 6.76534 20.7163 6.81047 21.0114 6.94093C21.3054 7.06342 21.5496 7.24736 21.7437 7.49276C21.937 7.7302 22.0788 8.01316 22.1689 8.34164C22.2583 8.66218 22.2931 9.00038 22.2735 9.35627C22.2564 9.73603 22.1734 10.1024 22.0249 10.4555C21.8763 10.8086 21.6799 11.1265 21.4356 11.409C21.1983 11.6827 20.916 11.9089 20.5887 12.0874C20.2612 12.2659 19.9024 12.3752 19.5126 12.4154C19.1305 12.4547 18.7926 12.4132 18.4984 12.2907C18.2035 12.1602 17.9554 11.9767 17.7541 11.7401C17.5608 11.5026 17.4193 11.2237 17.3301 10.9031C17.2479 10.5738 17.2126 10.2316 17.2243 9.87656ZM15.4456 10.0598C15.426 10.649 15.5032 11.204 15.6775 11.7248C15.859 12.2369 16.1302 12.6835 16.4911 13.0645C16.8513 13.4375 17.2864 13.7184 17.7964 13.9072C18.3064 14.0959 18.8758 14.1578 19.5045 14.093C20.1411 14.0275 20.73 13.8502 21.2713 13.5611C21.8125 13.2722 22.2855 12.9058 22.69 12.4619C23.0938 12.0102 23.4115 11.5029 23.6431 10.9402C23.8827 10.3767 24.0189 9.78764 24.0522 9.173C24.079 8.5751 23.9977 8.02051 23.8083 7.50923C23.6269 6.99713 23.3524 6.55894 22.9852 6.19466C22.6251 5.82161 22.1908 5.54869 21.6825 5.37589C21.1732 5.19514 20.6083 5.13674 19.9875 5.2007C19.3588 5.26547 18.7735 5.43839 18.2314 5.71943C17.6965 5.9917 17.2267 6.34973 16.8222 6.79354C16.4175 7.23736 16.095 7.73704 15.8547 8.29261C15.6144 8.84816 15.478 9.43724 15.4456 10.0598ZM24.3153 6.47984L26.5116 6.25352L26.0442 13.19L27.7272 13.0165L28.1947 6.08009L30.3672 5.85623L30.483 4.28809L24.4311 4.91171L24.3153 6.47984Z" fill="white"/>
</g>
</g>
</g>
<defs>
<linearGradient id="paint0_linear_4689_1777" x1="2.25" y1="3.74002" x2="39" y2="18.74" gradientUnits="userSpaceOnUse">
<stop stop-color="#FF654F"/>
<stop offset="1" stop-color="#FF0960"/>
</linearGradient>
<clipPath id="clip0_4689_1777">
<rect width="36" height="21" fill="white" transform="translate(0 0.740234)"/>
</clipPath>
<clipPath id="clip1_4689_1777">
<rect width="36" height="21" fill="white" transform="translate(0 0.740234)"/>
</clipPath>
<clipPath id="clip2_4689_1777">
<rect width="36" height="21" fill="white" transform="translate(0 0.740234)"/>
</clipPath>
</defs>
</svg>
