<svg width="36" height="22" viewBox="0 0 36 22" fill="none" xmlns="http://www.w3.org/2000/svg">
<g clip-path="url(#clip0_4689_1786)">
<g clip-path="url(#clip1_4689_1786)">
<path d="M36 13.0599V11.2417L32.7273 12.1508V16.6963L36 13.4235V13.0599Z" fill="#BB6410"/>
<path opacity="0.2" d="M32.7273 4.85967C32.7273 4.19688 32.1411 3.68722 31.4847 3.77934L2.57564 7.83676C2.03701 7.91236 1.63635 8.37317 1.63635 8.91709V17.1414C1.63635 17.7816 2.18493 18.2841 2.82259 18.2282L32.7273 15.605V4.85967Z" fill="#111315"/>
<path d="M36 13.4222L1.18967 16.5868C0.550819 16.6449 0 16.1418 0 15.5004V6.78207C0 6.21785 0.430239 5.74673 0.992145 5.69565L34.8104 2.62127C35.4492 2.56319 36 3.06621 36 3.70769V13.4222Z" fill="url(#paint0_linear_4689_1786)"/>
<path d="M6.92587 11.8239C6.93681 11.4603 6.86956 11.1337 6.72409 10.844C6.57805 10.5486 6.3743 10.3202 6.11286 10.1589C5.85721 9.99697 5.55567 9.93314 5.20827 9.96737C5.03456 9.98449 4.86575 10.0216 4.70183 10.0787C4.53734 10.1299 4.38035 10.198 4.23086 10.2829L4.68953 8.97491L6.99979 8.74726L7.06737 7.65318L3.81911 7.97325L2.84398 11.5158C3.12559 11.3477 3.40165 11.2124 3.67215 11.1097C3.94845 11.0065 4.22585 10.944 4.50435 10.9225C4.71337 10.9077 4.90292 10.9329 5.07304 10.998C5.24316 11.063 5.37905 11.1666 5.48073 11.3086C5.58243 11.4506 5.62616 11.6275 5.61197 11.8393C5.59833 12.057 5.53553 12.2503 5.42355 12.4192C5.311 12.5823 5.16057 12.7169 4.97227 12.8232C4.78339 12.9236 4.57026 12.9856 4.33286 13.009C4.06651 13.0352 3.80751 12.9876 3.55585 12.8663C3.30998 12.7444 3.08674 12.5851 2.88614 12.3886L2.28546 13.4124C2.56125 13.66 2.8846 13.8561 3.25549 14.0009C3.62636 14.1455 4.05789 14.1936 4.55006 14.1451C4.85114 14.1154 5.14188 14.04 5.42225 13.9188C5.70263 13.7978 5.95296 13.6386 6.17323 13.4415C6.39873 13.238 6.5771 13.0012 6.70833 12.731C6.84535 12.4603 6.91786 12.1579 6.92587 11.8239ZM7.60023 9.00379C7.58595 9.27414 7.63972 9.52315 7.76154 9.75086C7.8828 9.97276 8.05478 10.1458 8.27749 10.27C8.5002 10.3942 8.75631 10.4421 9.04581 10.4136C9.34111 10.3845 9.6064 10.2882 9.84168 10.1247C10.0764 9.95538 10.2663 9.74666 10.4114 9.49851C10.5565 9.25036 10.6359 8.98821 10.6496 8.71208C10.6575 8.43653 10.6009 8.18779 10.4796 7.96589C10.3578 7.73819 10.1858 7.56513 9.96366 7.4467C9.74095 7.32249 9.48484 7.27465 9.19533 7.30317C8.90004 7.33228 8.63475 7.42857 8.39946 7.59207C8.16419 7.75557 7.974 7.96139 7.8289 8.20954C7.6896 8.45713 7.61337 8.72188 7.60023 9.00379ZM8.51304 8.92262C8.51957 8.8109 8.55272 8.70239 8.61251 8.59711C8.67172 8.48605 8.7503 8.39352 8.84824 8.31957C8.94619 8.24561 9.05596 8.20264 9.17755 8.19065C9.29971 8.18446 9.40157 8.2095 9.48312 8.26578C9.56466 8.32205 9.62476 8.39798 9.66341 8.49356C9.70785 8.58857 9.72942 8.68876 9.72811 8.79412C9.72158 8.90584 9.68871 9.01724 9.62949 9.12831C9.56971 9.23359 9.49085 9.32321 9.39291 9.39717C9.30075 9.47056 9.19359 9.51035 9.07143 9.51654C8.94926 9.52274 8.84451 9.49797 8.75717 9.44227C8.67562 9.386 8.61262 9.31036 8.56819 9.21535C8.52954 9.11977 8.51116 9.02219 8.51304 8.92262ZM11.198 11.9642C11.1843 12.2403 11.2381 12.4893 11.3594 12.7112C11.4806 12.9331 11.6526 13.1062 11.8753 13.2304C12.098 13.3546 12.3541 13.4024 12.6436 13.3739C12.9389 13.3448 13.2042 13.2485 13.4395 13.085C13.6742 12.9157 13.8644 12.7099 14.0101 12.4676C14.1552 12.2194 14.2314 11.9547 14.2387 11.6733C14.2467 11.3977 14.19 11.149 14.0688 10.9271C13.9527 10.6988 13.7836 10.5255 13.5615 10.4071C13.3445 10.2823 13.0885 10.2344 12.7932 10.2635C12.5036 10.2921 12.2383 10.3884 11.9972 10.5524C11.762 10.7159 11.5718 10.9218 11.4267 11.1699C11.2874 11.4175 11.2112 11.6822 11.198 11.9642ZM12.1195 11.8821C12.1255 11.7646 12.1584 11.6532 12.2182 11.5479C12.2779 11.4427 12.3568 11.353 12.4548 11.2791C12.5527 11.2051 12.6627 11.165 12.7849 11.1588C12.9007 11.1474 12.9994 11.1699 13.081 11.2261C13.1624 11.2824 13.2255 11.3581 13.2699 11.4531C13.3144 11.5481 13.3331 11.6485 13.326 11.7545C13.3142 11.8726 13.2787 11.9871 13.2195 12.0982C13.1597 12.2035 13.0808 12.2931 12.9829 12.3671C12.8902 12.4347 12.7827 12.4716 12.6605 12.4778C12.5448 12.4892 12.4432 12.467 12.3558 12.4113C12.2743 12.355 12.2113 12.2794 12.1669 12.1844C12.1283 12.0888 12.1124 11.9881 12.1195 11.8821ZM12.7092 7.09724L7.97553 13.7024L9.12198 13.5894L13.873 6.98255L12.7092 7.09724ZM18.7635 9.56999C18.783 9.29328 18.8446 9.02707 18.948 8.77133C19.0572 8.51502 19.1981 8.28482 19.3709 8.0807C19.5496 7.87602 19.7582 7.7093 19.9969 7.58054C20.2357 7.45179 20.4968 7.37343 20.7806 7.34547C21.0643 7.31752 21.3132 7.35146 21.5272 7.44728C21.7407 7.53733 21.9176 7.6719 22.0582 7.85099C22.198 8.0243 22.3001 8.23054 22.3646 8.46974C22.4285 8.70314 22.4528 8.94921 22.4374 9.20798C22.4237 9.48411 22.3622 9.75032 22.253 10.0066C22.1438 10.2629 21.9999 10.4934 21.8213 10.6981C21.6479 10.8964 21.4418 11.06 21.2031 11.1887C20.9644 11.3175 20.7032 11.3958 20.4195 11.4238C20.1415 11.4512 19.8959 11.4199 19.6824 11.3298C19.4683 11.234 19.2884 11.0997 19.1428 10.927C19.003 10.7537 18.9011 10.5503 18.8371 10.3169C18.7784 10.0772 18.7539 9.82818 18.7635 9.56999ZM17.4695 9.69751C17.4532 10.1259 17.5076 10.5298 17.6327 10.9092C17.763 11.2822 17.9587 11.6078 18.22 11.8861C18.4807 12.1586 18.7962 12.3642 19.1666 12.5032C19.5368 12.642 19.9507 12.689 20.4082 12.6439C20.8714 12.5982 21.3003 12.4712 21.6948 12.2628C22.0894 12.0544 22.4345 11.7894 22.7303 11.468C23.0254 11.1407 23.258 10.7729 23.4283 10.3644C23.6043 9.95533 23.7053 9.52735 23.7315 9.08046C23.753 8.64571 23.6956 8.24211 23.5596 7.86966C23.4292 7.49664 23.2311 7.17707 22.9652 6.91096C22.7045 6.63848 22.3896 6.43858 22.0204 6.31126C21.6507 6.17815 21.24 6.13385 20.7883 6.17836C20.3309 6.22343 19.9046 6.34728 19.5096 6.54991C19.1196 6.74619 18.7768 7.00505 18.4811 7.32651C18.1853 7.64796 17.9492 8.01033 17.7726 8.41359C17.596 8.81685 17.495 9.24482 17.4695 9.69751ZM25.572 6.92595L28.2296 6.66406L28.3138 5.55958L25.6561 5.82147L25.572 6.92595ZM25.3992 9.3546L27.9795 9.10911L28.0514 8.05845L25.4806 8.31177L25.3992 9.3546ZM24.8744 5.89848L24.4399 12.08L25.6124 11.9644L26.0643 5.78124L24.8744 5.89848ZM30.1012 6.47965L32.7589 6.21776L32.843 5.11328L30.1853 5.37516L30.1012 6.47965ZM29.9283 8.9083L32.5087 8.6628L32.5806 7.61215L30.0098 7.86547L29.9283 8.9083ZM29.4037 5.45218L28.9692 11.6337L30.1417 11.5181L30.5935 5.33494L29.4037 5.45218Z" fill="white"/>
</g>
</g>
<defs>
<linearGradient id="paint0_linear_4689_1786" x1="27.8182" y1="16.1495" x2="33.2727" y2="3.60402" gradientUnits="userSpaceOnUse">
<stop stop-color="#FF5C00"/>
<stop offset="1" stop-color="#FFB800"/>
</linearGradient>
<clipPath id="clip0_4689_1786">
<rect width="36" height="21" fill="white" transform="translate(0 0.740234)"/>
</clipPath>
<clipPath id="clip1_4689_1786">
<rect width="36" height="17.4545" fill="white" transform="translate(0 2.51318)"/>
</clipPath>
</defs>
</svg>
